<svg xmlns="http://www.w3.org/2000/svg" viewBox="0 0 64 64" role="img" aria-label="Aiditor">
  <defs>
    <linearGradient id="frame" x1="10" y1="54" x2="54" y2="10" gradientUnits="userSpaceOnUse">
      <stop offset="0" stop-color="#2F80FF"/>
      <stop offset=".58" stop-color="#569EFF"/>
      <stop offset="1" stop-color="#8B7CFF"/>
    </linearGradient>
    <linearGradient id="mark" x1="20" y1="48" x2="45" y2="14" gradientUnits="userSpaceOnUse">
      <stop offset="0" stop-color="#F4FAFF"/>
      <stop offset="1" stop-color="#B7D6FF"/>
    </linearGradient>
    <filter id="soft" x="-20%" y="-20%" width="140%" height="140%">
      <feDropShadow dx="0" dy="8" stdDeviation="6" flood-color="#000" flood-opacity=".28"/>
    </filter>
  </defs>

  <rect x="6" y="6" width="52" height="52" rx="15" fill="#171A20" filter="url(#soft)"/>
  <path d="M15 49V22.5C15 18.4 18.4 15 22.5 15H49" fill="none" stroke="url(#frame)" stroke-width="5" stroke-linecap="round"/>
  <path d="M49 15v26.5c0 4.1-3.4 7.5-7.5 7.5H15" fill="none" stroke="url(#frame)" stroke-width="5" stroke-linecap="round"/>

  <path d="M19.5 45 31.3 18.8c.3-.7 1.1-1.2 1.9-1.2s1.5.5 1.9 1.2L46.7 45h-7.1l-2.2-5.4H28.8L26.6 45h-7.1Zm11.7-11.3H35l-1.9-5-1.9 5Z" fill="url(#mark)"/>
  <path d="M24.6 49H44" stroke="#569EFF" stroke-width="4" stroke-linecap="round"/>
  <path d="M43.5 20.5h-8" stroke="#8B7CFF" stroke-width="3" stroke-linecap="round"/>
</svg>
